# xmcd
#
# Track frame offsets:
#	183
#	12965
#	36715
#	54983
#	76158
#	88830
#	108050
#	125155
#	141485
#	156998
#	173313
#	189785
#	209513
#	227515
#
# Disc length: 3315 seconds
#
# Revision: 0
# Processed by: cddbd v1.5PL3 Copyright (c) Steve Scherf et al.
# Submitted via: dBpowerAMP V4.0
#
DISCID=b40cf10e
DTITLE=Victor Lazlo - Greatest Hits
DYEAR=1900
DGENRE=Blues
TTITLE0=Cry me a river
TTITLE1=Sweet, soft n'lazy
TTITLE2=Ain't gonna come
TTITLE3=Canoe Rose
TTITLE4=Put the blame on mame
TTITLE5=I don't wanna love again
TTITLE6=Pleurer des rivieres
TTITLE7=Last call for an angel
TTITLE8=Backdoor man
TTITLE9=Loser
TTITLE10=Mata Hari
TTITLE11=Slow motion
TTITLE12=Shanghai Lilly
TTITLE13=Stories
EXTD=
EXTT0=
EXTT1=
EXTT2=
EXTT3=
EXTT4=
EXTT5=
EXTT6=
EXTT7=
EXTT8=
EXTT9=
EXTT10=
EXTT11=
EXTT12=
EXTT13=
PLAYORDER=
